PathFileType	4	(X/Y/Z)	pose2sim_0-881.trc
DataRate	CameraRate	NumFrames	NumMarkers	Units	OrigDataRate	OrigDataStartFrame	OrigNumFrames
50	50	8	22	m	50	220	882
Frame#	Time	Hip			RHip			RKnee			RAnkle			RBigToe			RSmallToe			RHeel			LHip			LKnee			LAnkle			LBigToe			LSmallToe			LHeel			Neck			Head			Nose			RShoulder			RElbow			RWrist			LShoulder			LElbow			LWrist			
		X1	Y1	Z1	X2	Y2	Z2	X3	Y3	Z3	X4	Y4	Z4	X5	Y5	Z5	X6	Y6	Z6	X7	Y7	Z7	X8	Y8	Z8	X9	Y9	Z9	X10	Y10	Z10	X11	Y11	Z11	X12	Y12	Z12	X13	Y13	Z13	X14	Y14	Z14	X15	Y15	Z15	X16	Y16	Z16	X17	Y17	Z17	X18	Y18	Z18	X19	Y19	Z19	X20	Y20	Z20	X21	Y21	Z21	X22	Y22	Z22	
220	4.4	0.13870761653599173	0.9912696234186888	-0.005216276354612478	0.038118272048657996	0.9716335880901322	0.0018160451950827218	0.009369125689725089	0.5200694000552727	-0.0634613473904951	-0.0017602764367833305	0.0848944128970125	-0.08493055709745825	0.004902007612922709	0.05204110770437211	0.12765961358443179	-0.0508807133027901	0.04890291271994798	0.07861508600467589	0.009499628974905581	0.027669576951968176	-0.14854193861966494	0.24114785898338106	0.9671047251277106	-0.01458641712769836	0.24029983999986443	0.5103486804553882	-0.10134592875402751	0.24298002870788732	0.08452332001765532	-0.10684115176883206	0.255773590929024	0.04533555720245357	0.09476633693037452	0.30659218023979706	0.04127147055812542	0.037998642509059544	0.22253307188602958	0.030923617009713196	-0.16312451911478773	0.15102979065804442	1.570634045473566	-0.06517293448011016	0.15380433896269655	1.826568981186097	-0.03630516009740296	0.13781724978643303	1.7020956545331387	0.048974069838925785	-0.010643471623684937	1.4749142568480955	-0.04935904627271559	-0.07483492712860243	1.2153572692896226	0.02619990153919641	-0.1692018363543944	1.0305848966625724	0.1856762891263432	0.3099516082285166	1.4677245625886846	-0.06911040856473767	0.37141304679783543	1.2119059997280412	0.004961398184363828	0.4543806742851188	0.997407043432401	0.09812064115053128
221	4.42	0.13246125568819192	0.9840749629313414	-0.023981832153395253	0.030106769121735915	0.9712995628096989	-0.016133985822620257	0.007493032454625503	0.5172971173131707	-0.07309589780255266	0.0018965436207646347	0.09169289970507546	-0.08320555239243549	0.006522816728746992	0.05299223041319732	0.0967229351586761	-0.04908428246386836	0.055332996518937416	0.05637031005555969	0.007300144239263411	0.03972351642904887	-0.13614319137256237	0.24076108528004406	0.9666068124958881	-0.028034862873874612	0.24146913567421988	0.5152242461778956	-0.10243234874856244	0.24086515707917697	0.0869635478212824	-0.1139535117144278	0.25588152878540565	0.05138663293598031	0.08661680002989994	0.31021473347769096	0.049995140623102015	0.03226553811438741	0.2293524864920042	0.03225932349500061	-0.16645117651038188	0.1489752523888958	1.5708460202388497	-0.057930184258212725	0.1519805623504982	1.826642124725422	-0.024894951906171695	0.13422821048351244	1.69222864171439	0.04488433937598874	-0.012145976255278697	1.472411470532926	-0.047307736615874174	-0.07215969021256513	1.206821096336206	0.028817720278069676	-0.17027140356211615	1.0189463715949962	0.16027522389480353	0.312239430121695	1.4670819878352332	-0.06925288983829	0.3736441654774217	1.2110555333668909	-0.0066587015959711105	0.451919737870131	0.9912314050817029	0.07214257929688618
222	4.44	0.1363682150318702	0.9844774598089369	-0.017192873631707798	0.031812017313370855	0.9729589382994488	-0.0024458582213711254	0.007745471910267142	0.515537746110977	-0.0728569251504957	0.004301117741246658	0.09141818584757248	-0.09026738190193474	-0.0007248467960752973	0.054681503821935255	0.10413755317552593	-0.05066220075084131	0.05944543262357133	0.0635335047131494	0.006054555021185851	0.031427760825338484	-0.1504948132408344	0.24110681786025417	0.966785019966676	-0.028049248491499347	0.2409158393795815	0.5159834895716654	-0.10189611420964408	0.24063061160891758	0.08581202184560874	-0.11355604630637767	0.2565812326572458	0.05072589358002491	0.08646590953740134	0.3103201302121888	0.04613792418745277	0.03222381388450837	0.2286626412850517	0.02781606990612257	-0.16584355884879648	0.1515928608988155	1.569418197547667	-0.06439928636356984	0.1493723964716828	1.8270061255354315	-0.017886931518801247	0.1349139757421413	1.692772524982817	0.057851145106752364	-0.014311456247306373	1.4738075319352093	-0.03971107494205115	-0.07175514206941404	1.211620152861536	0.02914989498923639	-0.16385418299952673	1.012949764437842	0.1588068860296784	0.31187597061388594	1.4687433804650731	-0.06885171595421874	0.3702237940998473	1.2101462343484075	-0.013321685054406243	0.4517065659931567	0.9859868633265113	0.04573361749430193
223	4.46	0.13580733104416012	0.9867614335384017	-0.024002543453689473	0.031075173981678684	0.9750415635870818	-0.008512235437699132	0.010442994425019142	0.5183652985877356	-0.07250422881441569	0.001326781232700516	0.0909479720137157	-0.08922931234221813	0.0016835363311047454	0.05681159387844311	0.10486027049071439	-0.04775951898170017	0.05888474382754528	0.06433163174272416	0.006789023400341258	0.03911618023216832	-0.14237505853075869	0.2407436617523493	0.9685769142962813	-0.03547092228550366	0.2376414432350992	0.5122526580668922	-0.10270764236387034	0.2411040222855289	0.08677400566291388	-0.10731456568344006	0.25558765129902156	0.04613681930844217	0.06550627365392166	0.3098826684504271	0.04555999079162529	0.024205557430501602	0.22970520701401506	0.03221057524413768	-0.159534002078632	0.15214807956444368	1.5726136823384331	-0.05776007920314444	0.15245279189914202	1.8278679138664018	-0.0181999175943139	0.13790485360569793	1.6957017810049146	0.05782928358057716	-0.011290133644805451	1.4715061502251083	-0.03917087653173217	-0.07250962757885245	1.2060549387375188	0.023965308284547626	-0.16254462616500784	1.003957214684697	0.14759345796939077	0.3151984158218986	1.4663244751019107	-0.07016842676791009	0.37047184674582406	1.2071376835088932	-0.02177035012500992	0.44619995330473056	0.9766642813186698	0.03641574996617538
224	4.48	0.14021151097819556	0.9877529758539666	-0.002977507229174173	0.0374784877940359	0.9732469374743785	0.010097065816946558	0.0055699430225487866	0.5161995874098516	-0.060587331371176084	-0.000516333196947381	0.09050009010846025	-0.08223252478961254	0.009228180262699512	0.05172160394702983	0.13532010415154694	-0.04607335024342914	0.051108634526358075	0.08631729268623399	0.001251865568993312	0.037576239171532244	-0.13242729512854717	0.23986606194019564	0.9647288901302437	-0.01772434029720321	0.23954336233381726	0.5100204456765951	-0.10501071588988485	0.24506089521961874	0.08535910335749879	-0.1045969680386844	0.26084409599485814	0.055186375393325306	0.10266015454116885	0.309280460407674	0.0529052881148665	0.051846243809686374	0.2278499743262006	0.03049990942003978	-0.16745336240029626	0.15283533613962688	1.571483619282713	-0.06277672347016738	0.15670338959897176	1.8281496288547687	-0.011955404622593077	0.1358628236777754	1.7014434865362755	0.07292200621903058	-0.011012378685197926	1.471686055910153	-0.04123574963251938	-0.07159011295578001	1.2044986842824792	0.022544727111538064	-0.16572370101677736	0.9927897884468988	0.1387477767020346	0.3095024130936744	1.466793526553816	-0.061427286341370145	0.3682926844559071	1.2073222224883577	-0.01562848798416571	0.43670806536210116	0.9786715503650257	0.04399645738641747
225	4.5	0.1378629503685008	0.9869237946089805	-0.014741098958823013	0.029439579524459556	0.9743758940912896	-0.006632096162644921	0.008379920623505064	0.5190868700413686	-0.0707623213306953	0.004736172981435086	0.09328001480408121	-0.08802096532800878	0.002179396809595233	0.05401189319521009	0.09989381452643796	-0.05112572776598307	0.05401739314814289	0.052295724141578535	0.01057262287345211	0.03830480554842372	-0.14140782852225167	0.24320626977696902	0.9719782473137755	-0.025321237847317362	0.2424546904709751	0.5135150585055438	-0.09931321359812538	0.24003446826250685	0.09003422264945542	-0.10368064773602433	0.2607776751282637	0.05023121379732607	0.08301648602260857	0.3121182138263171	0.04674333523197293	0.021757286089332816	0.22800769012645283	0.03215498065648123	-0.1560794778999568	0.15044833788204298	1.5712659019886461	-0.05535977187161582	0.1508218345627042	1.8270802128296657	-0.015596381950423878	0.13637409526051172	1.697562059904192	0.06045710781597788	-0.015950651692390298	1.4725174265637968	-0.030758194778462245	-0.07237307272959269	1.2028837196079714	0.01777280028128313	-0.15922642586841906	0.9909160778214663	0.11416215294632771	0.3140453509403451	1.4703017907982179	-0.06628565774836132	0.3664715865608886	1.2069626057830267	-0.024111234269838383	0.4365967522117079	0.9727209773272963	0.00767405702151402
226	4.52	0.13630839187218635	0.9852368018345334	-0.017908778284802446	0.03168475875577808	0.9734213829789469	-0.0029264212280814012	0.010940232280472565	0.5202105580148757	-0.06669793201517453	0.004906451422177259	0.09227190405589211	-0.07646472863274059	0.0017665688625460214	0.04647726837578948	0.0965758964246276	-0.048252934573615146	0.051080052273492854	0.055831008053853236	0.007174961861178833	0.03552962500103629	-0.13643634192031368	0.24132309777054448	0.9701131365480588	-0.02889457649768443	0.24039800663731964	0.515866251377123	-0.10268775570378057	0.24374019444870842	0.09056026944089679	-0.10722495239538712	0.2618389163206233	0.04992788030937321	0.08571674287190453	0.3130152159401651	0.04647124045054579	0.02455488739123375	0.23852759592395986	0.029669427135316596	-0.15969091042059783	0.15213329003038537	1.573048757098336	-0.05168919266630931	0.1550573675996045	1.8281543986361442	-0.01882682988281708	0.14578298167920528	1.7018387370232733	0.04406420252757895	-0.014522958783505364	1.4746319731599888	-0.040174564055440926	-0.07095862424831283	1.2027031445333332	0.008445098514255156	-0.15779204122053558	0.985751578010405	0.10488197479986576	0.31503630383545633	1.4671138888892084	-0.06317938072032986	0.3670969116773359	1.2039418072600232	-0.03480776188534463	0.43416673044521636	0.9652002858395089	0.00305952964794821
227	4.54	0.13643925908602308	0.9832251105572825	-0.011251170372602102	0.02859706665429787	0.9734201994464571	-0.0026376204561168394	0.007773469161167733	0.519847882073676	-0.0664462218258937	0.0017118343722308626	0.09148746855186099	-0.0762187619669112	0.0021222428348017983	0.04756871472878064	0.10337301053814421	-0.05142192591834261	0.05027267092772128	0.056296891950270135	0.003949309445160325	0.03467151554409465	-0.13625321542694405	0.2382158290130858	0.9672125280275693	-0.028941216054857655	0.24059778264258577	0.511126899528783	-0.11016403396429944	0.24122403529015957	0.09285651674348572	-0.10732676213393681	0.2585861467245821	0.04495568867903091	0.07230415385459574	0.31306389884009866	0.043544593711687826	0.01761649807464105	0.23599055311546033	0.03218915126913862	-0.1599570161663286	0.1524669255330815	1.573557656632045	-0.04505484466857803	0.1611503395209201	1.8312376067449962	-0.012577352176829338	0.15511141005395063	1.7018508831360777	0.05647436091730264	-0.014172036732547721	1.4725918473516628	-0.033668335618710965	-0.07418679614336625	1.1976123551623135	0.008738059510463428	-0.15526379370859833	0.9803069545903152	0.1043376862276919	0.3213036139436857	1.4676304699692528	-0.05635447111812841	0.36405589933690075	1.2006766841012957	-0.04861280085958319	0.4342750885091247	0.9615978619665407	-0.003706348349647116
